<?xml version="1.0" encoding="iso-8859-1"?>
<!-- Generator: Adobe Illustrator 19.0.0, SVG Export Plug-In . SVG Version: 6.00 Build 0)  -->
<svg version="1.1" id="Layer_1" xmlns="http://www.w3.org/2000/svg" xmlns:xlink="http://www.w3.org/1999/xlink" x="0px" y="0px"
	 viewBox="0 0 508 508" style="enable-background:new 0 0 508 508;" xml:space="preserve">
<path style="fill:#73BADD;" d="M456.2,454.8c0,24-17.2,43.2-41.2,43.2H97.4c-24,0-45.2-19.2-45.2-43.2V49.2C52.2,25.2,73.4,6,97.4,6
	H415c24,0,41.2,19.2,41.2,43.2L456.2,454.8L456.2,454.8z"/>
<g>
	<path style="fill:#33A5D2;" d="M146.2,398c5.6,0,10,4.4,10,10s-4.4,10-10,10h-52c-5.6,0-10-4.4-10-10s4.4-10,10-10H146.2z"/>
	<path style="fill:#33A5D2;" d="M146.2,86c5.6,0,10,4.4,10,10s-4.4,10-10,10h-52c-5.6,0-10-4.4-10-10s4.4-10,10-10H146.2z"/>
</g>
<rect x="156.2" y="198" style="fill:#F4EFEF;" width="204" height="112"/>
<path d="M416.6,508H95.4c-26.8,0-49.6-21.6-49.6-47.6V47.6C45.8,22,68.6,0,95.4,0h321.2c25.6,0,45.6,20.8,45.6,47.6v413.2
	C462.2,487.2,442.2,508,416.6,508z M95.8,8C73.4,8,54.2,26,54.2,47.6v413.2c0,21.2,18.8,39.6,41.6,39.6H417
	c21.2,0,37.6-16.8,37.6-39.6h4h-4V47.6c0-22.4-16-39.6-37.6-39.6L95.8,8L95.8,8z"/>
<path d="M324.2,240h-136c-2.4,0-4-1.6-4-4s1.6-4,4-4h136c2.4,0,4,1.6,4,4S326.6,240,324.2,240z"/>
<path d="M236.2,280h-48c-2.4,0-4-1.6-4-4s1.6-4,4-4h48c2.4,0,4,1.6,4,4S238.6,280,236.2,280z"/>
<path d="M324.2,280h-52c-2.4,0-4-1.6-4-4s1.6-4,4-4h52c2.4,0,4,1.6,4,4S326.6,280,324.2,280z"/>
<path d="M146.2,424h-52c-7.6,0-14-6.4-14-14s6.4-14,14-14h52c7.6,0,14,6.4,14,14S153.8,424,146.2,424z M94.2,404c-3.2,0-6,2.8-6,6
	s2.8,6,6,6h52c3.2,0,6-2.8,6-6s-2.8-6-6-6H94.2z"/>
<path d="M146.2,112h-52c-7.6,0-14-6.4-14-14s6.4-14,14-14h52c7.6,0,14,6.4,14,14S153.8,112,146.2,112z M94.2,92c-3.2,0-6,2.8-6,6
	s2.8,6,6,6h52c3.2,0,6-2.8,6-6s-2.8-6-6-6H94.2z"/>
<path d="M358.2,316h-204c-2.4,0-4-1.6-4-4V200c0-2.4,1.6-4,4-4h204c2.4,0,4,1.6,4,4v112C362.2,314.4,360.6,316,358.2,316z
	 M158.2,308h196V204h-196V308z"/>
<path d="M418.2,506c-2.4,0-4-1.6-4-4V70c0-2.4,1.6-4,4-4s4,1.6,4,4v432C422.2,504.4,420.6,506,418.2,506z"/>
<path d="M418.2,30c-2.4,0-4-1.6-4-4V6c0-2.4,1.6-4,4-4s4,1.6,4,4v20C422.2,28.4,420.6,30,418.2,30z"/>
<g>
</g>
<g>
</g>
<g>
</g>
<g>
</g>
<g>
</g>
<g>
</g>
<g>
</g>
<g>
</g>
<g>
</g>
<g>
</g>
<g>
</g>
<g>
</g>
<g>
</g>
<g>
</g>
<g>
</g>
</svg>
